IKResults
version=1
nRows=16
nColumns=40
inDegrees=yes

Units are S.I. units (second, meters, Newtons, ...)
Angles are in degrees.

endheader
time	pelvis_tilt	pelvis_list	pelvis_rotation	pelvis_tx	pelvis_ty	pelvis_tz	hip_flexion_r	hip_adduction_r	hip_rotation_r	knee_angle_r	knee_angle_r_beta	ankle_angle_r	subtalar_angle_r	mtp_angle_r	hip_flexion_l	hip_adduction_l	hip_rotation_l	knee_angle_l	knee_angle_l_beta	ankle_angle_l	subtalar_angle_l	mtp_angle_l	lumbar_extension	lumbar_bending	lumbar_rotation	arm_flex_r	arm_add_r	arm_rot_r	elbow_flex_r	pro_sup_r	wrist_flex_r	wrist_dev_r	arm_flex_l	arm_add_l	arm_rot_l	elbow_flex_l	pro_sup_l	wrist_flex_l	wrist_dev_l
      0.76000000	     18.58949971	     -6.43847526	      8.54324400	      0.39277803	      0.93103831	      0.97907650	     -0.35934163	      6.67263237	    -16.55491992	    -28.53292172	     -0.49799343	      4.80598566	    -10.14402078	      6.32042849	    -18.08712771	      7.27697296	     -3.92434117	    -58.89929742	     -1.02798667	     -1.58177742	     17.75583051	      9.34455819	    -20.82630654	      9.13583067	     -8.61962313	    -20.04294835	    -12.85413461	     -1.77969960	     18.66014467	     89.95437384	      0.00000000	      0.00000000	      7.08203758	      9.78583551	      6.24980396	     45.24019651	     89.95437384	      0.00000000	      0.00000000
      0.77000000	     19.00911330	     -6.07178000	      8.93522216	      0.40646937	      0.93454671	      0.97871273	     -2.45397152	      6.63864055	    -16.65682383	    -27.36807305	     -0.47766298	      5.26352426	     -9.46254755	      6.39865899	    -17.05492304	      6.63568674	     -4.96545579	    -59.15765224	     -1.03249581	      0.19615405	     17.73389417	      8.79404164	    -21.28285908	      8.87913690	     -8.59722670	    -19.31319111	    -12.87946828	     -1.27987232	     19.77369041	     89.95437384	      0.00000000	      0.00000000	      6.66478044	      9.56081913	      5.87180988	     43.92896445	     89.95437384	      0.00000000	      0.00000000
      0.78000000	     18.91882031	     -5.63092679	      8.75170405	      0.41947908	      0.93712419	      0.97903416	     -3.69706115	      6.37588362	    -16.29225653	    -26.72236156	     -0.46639319	      5.74382610	     -9.17336512	      6.28927195	    -15.37620039	      5.81071074	     -5.21761212	    -59.43523333	     -1.03734051	      1.87480385	     17.62004347	      8.38247251	    -21.37549196	      8.32522834	     -8.14347408	    -18.45749073	    -12.87247151	     -1.20343460	     20.85682897	     89.95437384	      0.00000000	      0.00000000	      6.25690693	      9.30764595	      5.76015412	     42.61248250	     89.95437384	      0.00000000	      0.00000000
      0.79000000	     18.74858089	     -5.18575629	      8.48634709	      0.43236875	      0.93942659	      0.97953951	     -4.80261387	      6.00588386	    -16.24509797	    -26.12871651	     -0.45603213	      6.08352213	     -8.97849244	      6.17051153	    -13.53059142	      5.18248044	     -4.91197598	    -59.55068108	     -1.03935546	      3.26485115	     17.47994302	      8.06493796	    -21.42035350	      7.70367026	     -7.63917759	    -17.57296297	    -12.85543178	     -1.20931366	     21.93245954	     89.95437384	      0.00000000	      0.00000000	      5.71031863	      9.11159005	      5.74662190	     41.54651075	     89.95437384	      0.00000000	      0.00000000
      0.80000000	     18.74906103	     -4.88145922	      8.18569705	      0.44537040	      0.94181422	      0.97986506	     -6.19519317	      5.91956940	    -15.62726733	    -25.30073640	     -0.44158115	      6.44065199	     -8.69674789	      6.11927251	    -12.15851340	      4.49487690	     -4.96231037	    -59.10803764	     -1.03162987	      5.30173158	     17.57392042	      7.69168564	    -21.59086337	      7.30330444	     -6.86406736	    -17.04058478	    -12.94562817	     -1.34728763	     23.57028676	     89.95437384	      0.00000000	      0.00000000	      5.44196328	      8.70530695	      5.88783011	     39.96638718	     89.95437384	      0.00000000	      0.00000000
      0.81000000	     18.85121993	     -4.50586705	      7.66838837	      0.45814907	      0.94413584	      0.98056727	     -7.71226939	      5.68874602	    -15.21213703	    -24.41068360	     -0.42604680	      6.67587621	     -8.53752099	      6.17152347	    -10.87753722	      3.96283525	     -4.30921193	    -58.40146774	     -1.01929790	      6.49214856	     17.62402741	      7.32617269	    -21.96366653	      6.74038229	     -5.93974460	    -16.42428584	    -13.01939170	     -1.57867929	     25.24145040	     89.95437384	      0.00000000	      0.00000000	      5.00786569	      8.46050871	      5.88100141	     38.71021769	     89.95437384	      0.00000000	      0.00000000
      0.82000000	     18.57409500	     -4.21148342	      7.28587143	      0.47058130	      0.94551250	      0.98128824	     -8.62505339	      5.45978804	    -15.05196753	    -23.81546962	     -0.41565836	      7.06044979	     -8.27148304	      6.03931951	     -9.02698555	      3.51749282	     -3.82378793	    -57.77506039	     -1.00836503	      7.84718227	     17.76269322	      7.09930570	    -21.91439071	      6.21764351	     -5.25803961	    -15.64817364	    -13.08802163	     -1.59589793	     26.68728291	     89.95437384	      0.00000000	      0.00000000	      4.51354911	      8.24254970	      6.14771319	     37.46085952	     89.95437384	      0.00000000	      0.00000000
      0.83000000	     18.50119863	     -3.88559362	      6.75580602	      0.48317763	      0.94692117	      0.98209145	     -9.80752513	      5.17933870	    -14.87333012	    -23.09997440	     -0.40317061	      7.40989585	     -8.04028554	      5.95805487	     -7.57033699	      3.12429536	     -3.02354299	    -56.73926225	     -0.99028694	      9.28993988	     17.94201640	      6.98126458	    -22.09382630	      5.64359947	     -4.36607503	    -15.02754179	    -13.19932199	     -1.70937847	     28.44091007	     89.95437384	      0.00000000	      0.00000000	      4.04227601	      7.92587520	      6.66645143	     36.15017593	     89.95437384	      0.00000000	      0.00000000
      0.84000000	     18.15058737	     -3.67388638	      6.43957530	      0.49538742	      0.94755915	      0.98298476	    -10.47580637	      4.93691018	    -15.15336822	    -22.81546608	     -0.39820500	      7.75682736	     -7.93597076	      5.79777428	     -5.60280667	      3.04487353	     -2.11335506	    -55.79548802	     -0.97381497	     10.13846931	     17.95886460	      6.83468194	    -21.95586512	      5.16961204	     -3.84936437	    -14.03420901	    -13.23727818	     -1.69039392	     29.66997363	     89.95437384	      0.00000000	      0.00000000	      3.29489505	      7.89990895	      6.85827490	     35.23400665	     89.95437384	      0.00000000	      0.00000000
      0.85000000	     18.62667836	     -3.28252336	      5.51355698	      0.50815797	      0.94945785	      0.98402796	    -12.48723031	      4.66395689	    -13.88980216	    -21.65912314	     -0.37802301	      7.90082980	     -7.82142080	      5.83255467	     -5.19020162	      2.60984835	     -0.95802420	    -53.86428728	     -0.94010916	     11.99992672	     18.04723675	      7.14355869	    -22.74396284	      4.43578020	     -2.61476956	    -13.46806174	    -13.55605144	     -1.38372446	     31.68694330	     89.95437384	      0.00000000	      0.00000000	      2.91730429	      7.39929433	      8.21579627	     33.75400290	     89.95437384	      0.00000000	      0.00000000
      0.86000000	     18.31021909	     -3.12861565	      5.12013589	      0.52028937	      0.94954937	      0.98469837	    -13.22598340	      4.48269183	    -13.78534830	    -21.20038404	     -0.37001650	      8.38374973	     -7.51565711	      5.61386305	     -3.46248191	      2.57224960	      0.00405233	    -52.32940601	     -0.91332043	     13.39534535	     18.11050395	      7.05616760	    -22.64670485	      4.02076015	     -1.94121480	    -12.68010406	    -13.73494156	     -1.27306919	     33.29053121	     89.95437384	      0.00000000	      0.00000000	      2.37225520	      7.23376408	      8.83351107	     32.45114289	     89.95437384	      0.00000000	      0.00000000
      0.87000000	     18.04854813	     -3.00728821	      4.73795209	      0.53234848	      0.94939466	      0.98524623	    -14.01014755	      4.31632618	    -13.75953815	    -20.76558557	     -0.36242784	      8.90626454	     -7.32033362	      5.41155040	     -1.83449006	      2.56993391	      0.90848613	    -50.67918468	     -0.88451863	     14.31423446	     18.23777660	      6.99805756	    -22.61773661	      3.64765403	     -1.27050180	    -11.81553423	    -13.92509540	     -1.19532278	     34.85218390	     89.95437384	      0.00000000	      0.00000000	      1.83769351	      7.07483191	      9.53030868	     31.19247027	     89.95437384	      0.00000000	      0.00000000
      0.88000000	     18.33302395	     -2.64780666	      3.96724795	      0.54511553	      0.95006998	      0.98599243	    -15.57971432	      3.88769440	    -13.08607606	    -20.06566539	     -0.35021193	      9.19658882	     -7.10108268	      5.21679343	     -1.30752296	      2.43526696	      2.49294868	    -48.17819371	     -0.84086811	     14.79684681	     18.08116622	      7.26435740	    -23.11236569	      2.93464103	     -0.48565035	    -11.00503829	    -14.22717784	     -0.86785672	     36.60271859	     89.95437384	      0.00000000	      0.00000000	      1.27867724	      6.76296308	     11.14571357	     29.77132527	     89.95437384	      0.00000000	      0.00000000
      0.89000000	     17.75268052	     -2.70787103	      3.94244257	      0.55708153	      0.94872240	      0.98628297	    -15.84270051	      3.91756258	    -13.70367320	    -19.97119540	     -0.34856312	      9.74157303	     -7.12618506	      5.00094530	      0.75946358	      2.84664881	      3.53361253	    -46.45108708	     -0.81072441	     15.18803397	     17.71365329	      7.13147505	    -22.66499839	      2.80411748	     -0.33039557	     -9.92316461	    -14.29897371	     -0.87105789	     37.82139230	     89.95437384	      0.00000000	      0.00000000	      0.43830621	      6.90773210	     11.28212548	     28.83003430	     89.95437384	      0.00000000	      0.00000000
      0.90000000	     17.61689304	     -2.57303082	      3.34260988	      0.56923996	      0.94807248	      0.98652231	    -16.86214360	      3.71033734	    -12.93896293	    -19.33257335	     -0.33741706	     10.27852975	     -6.66583925	      4.77853540	      1.74527842	      2.67865622	      4.32423028	    -43.80325336	     -0.76451099	     16.01705045	     17.87884191	      7.08334700	    -22.72958715	      2.40896579	      0.56372972	     -9.31728804	    -14.76584430	     -0.51551996	     39.81059478	     89.95437384	      0.00000000	      0.00000000	      0.36833087	      6.61046220	     12.46872872	     26.69748360	     89.95437384	      0.00000000	      0.00000000
      0.91000000	     17.78275589	     -2.27365489	      2.70665977	      0.58181545	      0.94760892	      0.98677048	    -18.16465974	      3.25414408	    -12.51047245	    -18.89657918	     -0.32980752	     10.73119840	     -6.47073950	      4.55365977	      2.22687604	      2.58465896	      5.91062513	    -40.81614140	     -0.71237606	     15.95261312	     17.53212748	      6.99011307	    -23.07654416	      1.81610888	      1.20946903	     -8.46149968	    -15.07329518	     -0.32313755	     41.45346619	     89.95437384	      0.00000000	      0.00000000	     -0.03962019	      6.40908669	     14.04372303	     25.07615127	     89.95437384	      0.00000000	      0.00000000
